# xmcd CD database file
#
# Track frame offsets:
#	150
#	26299
#	43696
#	60270
#	80871
#	109284
#	140657
#	156535
#	183607
#	202254
#	233912
#	255260
#	292275
#	314475
#
# Disc length: 4599 seconds
#
# Revision: 0
# Processed by: cddbd v1.5.2PL0 Copyright (c) Steve Scherf et al.
# Submitted via: Feurio! 1.68 - http://www.feurio.com
#
DISCID=d711f50e
DTITLE=Rory Gallagher - 2008# The Essential Rory Gallagher [CD2]
DYEAR=2008
DGENRE=
TTITLE0=In Your Town
TTITLE1=Philby
TTITLE2=Slumming Angel
TTITLE3=Continental Op
TTITLE4=Cradle Rock
TTITLE5=A Million Miles Away
TTITLE6=Wheels Within Wheels
TTITLE7=Crest Of A Wave
TTITLE8=They Don't Make Them Like You Anymore
TTITLE9=Walk On Hot Coals
TTITLE10=Shadow Play
TTITLE11=I Could've Had Religion (live)
TTITLE12=Tattoo'd Lady (live)
TTITLE13=Bullfrog Blues (live)
EXTD=
EXTT0=
EXTT1=
EXTT2=
EXTT3=
EXTT4=
EXTT5=
EXTT6=
EXTT7=
EXTT8=
EXTT9=
EXTT10=
EXTT11=
EXTT12=
EXTT13=
PLAYORDER=
